<svg id="Layer_2" data-name="Layer 2" xmlns="http://www.w3.org/2000/svg" viewBox="0 0 1000 1000"><defs><style>.cls-1{fill:#fff520;}.cls-2{fill:#ffeb20;}.cls-3{fill:#ffdc20;}.cls-4{fill:#ffd220;}.cls-5{fill:#ffbe20;}.cls-6{fill:#ffffc1;}</style></defs><title>Logo TransparentBG</title><path class="cls-1" d="M479.6,525.2c2.83-10.93,17.27-79.19-39.11-161.09a1.09,1.09,0,0,1,1.55-1.49c63.65,47.83,68.43,101,69.56,159.5a1.09,1.09,0,0,1-1,1.1l-29.86,3.33A1.08,1.08,0,0,1,479.6,525.2Z"/><path class="cls-1" d="M479.3,526.33c4.17-18,35.57-144.53,99.26-176a1.09,1.09,0,0,1,1.26,1.73c-27.25,28.64-34.21,47-72.91,163.27a1.11,1.11,0,0,1-.59.65l-25.51,11.54A1.08,1.08,0,0,1,479.3,526.33Z"/><path class="cls-2" d="M479.15,522c.35-22.93-6.64-101.42-113.35-143a1.09,1.09,0,0,1,.47-2.1,156,156,0,0,1,73.33,25.81c39,26.28,54.32,62.61,59.18,76a1,1,0,0,1,0,.77l-17.52,42.94A1.09,1.09,0,0,1,479.15,522Z"/><path class="cls-2" d="M479.25,526.36c3.35-14.94,27.62-104.52,130.13-116.18a1.09,1.09,0,0,1,.56,2.09c-38.23,16.59-69.86,18.58-103,103.14a1.1,1.1,0,0,1-.57.59l-25.59,11.58A1.08,1.08,0,0,1,479.25,526.36Z"/><path class="cls-3" d="M478.89,525.12c-.46-12.47-9.47-56.14-111.88-66.58a1.09,1.09,0,0,1-.06-2.16A170.11,170.11,0,0,1,416,456c43.83,6,74,27.84,87.7,39.2l-22.89,30.56A1.09,1.09,0,0,1,478.89,525.12Z"/><path class="cls-3" d="M480.41,525.58c8.54-14.78,51.56-80.81,131-67.29a1.09,1.09,0,0,1,0,2.15c-37,6.51-54.13,4.11-104.5,55.24a1.5,1.5,0,0,1-.33.23l-24.77,11.2A1.08,1.08,0,0,1,480.41,525.58Z"/><path class="cls-4" d="M480.31,526.63c7.11-8.34,39.33-41.92,90.21-33.25a1.09,1.09,0,0,1-.09,2.16c-20.33,1.74-60.43,11.17-77.3,32.28a1.06,1.06,0,0,1-.82.41l-11.15.19A1.09,1.09,0,0,1,480.31,526.63Z"/><path class="cls-5" d="M505.27,527.86c3.79-2.31,51.36-29.84,107,4.52a1.09,1.09,0,0,0,1.29-1.75c-40.59-35.07-79.26-38.38-134.76-2.17l25.91-.44A1.17,1.17,0,0,0,505.27,527.86Z"/><path class="cls-4" d="M478.8,528.46s-6-33.1-86.9-36h0a174.07,174.07,0,0,1,44.24-3.38,176.3,176.3,0,0,1,67.72,17.54Z"/><path class="cls-5" d="M478.8,528.46S412.24,493.5,331,541.6c-.54.33-.83.45-.87.39-.17-.24,38.7-29.14,76.59-37.32,17.95-3.87,48.34-5.83,89.61,13.39Z"/><path class="cls-6" d="M722.36,633.71a5.3,5.3,0,0,1-.55.1h0a3.27,3.27,0,0,1-2.28-.57c-.48-.33-.93-.64-1.38-1-2.36-1.67-4.76-3.31-7.2-4.88q-5.73-3.43-11.72-6.7a335.63,335.63,0,0,0-30.49-14.59c-46.52-19.51-102.11-31.39-162.07-32.78-3.88-.07-7.8-.12-11.73-.12-4.54,0-9,0-13.5.17-5.36.15-10.69.38-16,.69-.32,0-.63,0-.91.05q-10.92.64-21.57,1.76l-1,.11a5.5,5.5,0,0,0-.62.08c-6,.61-11.85,1.38-17.68,2.21q-15.62,2.29-30.58,5.49a1.06,1.06,0,0,0-.14,0q-13.79,3-26.89,6.68a369.89,369.89,0,0,0-74.51,29.7q-10.8,5.82-20.7,12.21c-.47.29-1,.62-1.42.93a3.65,3.65,0,0,1-1.33.5,5.91,5.91,0,0,1-1,0h-.91l-.32-.06-.34-.08c-1.32-.4-2.23-1.49-1.29-2.6,34.87-39.65,91.94-69.48,159.75-81.83q6.71-1.2,13.51-2.21l1-.14c2.09-.29,4.21-.57,6.33-.83,4-.52,8.09-1,12.17-1.33,5.78-.56,11.66-1,17.58-1.24,2.48-.12,5-.24,7.47-.31.79,0,1.55-.05,2.31-.05,3.21-.1,6.42-.12,9.68-.12h2l1.14,0c1.05,0,2.12,0,3.16,0a397,397,0,0,1,46.24,3.43c70.75,9.46,131.35,37.72,169.82,76.66l.11.11c2.52,2.55,5,5.17,7.28,7.81C724.77,632.22,723.78,633.34,722.36,633.71Z"/><path class="cls-5" d="M698.14,606.8a335.43,335.43,0,0,0-30.48-14.59c-46.53-19.51-102.12-31.4-162.07-32.78-3.88-.07-7.81-.12-11.73-.12-4.55,0-9,.05-13.51.17-5.35.14-10.69.38-16,.69-.31,0-.63,0-.91.05q-10.91.64-21.57,1.75c-.33,0-.67.08-1,.12a5.5,5.5,0,0,0-.62.08c-6,.61-11.84,1.37-17.68,2.21Q407,566.66,392,569.87l-.15,0q-13.78,3-26.88,6.68a369.17,369.17,0,0,0-74.52,29.7c34.36-27.2,80.66-47.42,133.47-57,4.47-.81,9-1.54,13.51-2.22l1-.13c2.09-.29,4.2-.58,6.33-.84,4-.52,8.08-.95,12.17-1.33,5.78-.55,11.66-1,17.58-1.24,2.47-.11,5-.24,7.47-.31.79,0,1.55,0,2.31,0,3.21-.09,6.41-.11,9.67-.11h2l1.14,0c1,0,2.12,0,3.16,0a395,395,0,0,1,46.24,3.42C607,554.57,660,576.36,698.14,606.8Z"/></svg>